<?xml version="1.0" encoding="UTF-8" standalone="no"?>
<!DOCTYPE svg PUBLIC "-//W3C//DTD SVG 1.1//EN" "http://www.w3.org/Graphics/SVG/1.1/DTD/svg11.dtd">
<svg width="100%" height="100%" viewBox="0 0 24 24" version="1.1" xmlns="http://www.w3.org/2000/svg" xmlns:xlink="http://www.w3.org/1999/xlink" xml:space="preserve" xmlns:serif="http://www.serif.com/" style="fill-rule:evenodd;clip-rule:evenodd;stroke-linejoin:round;stroke-miterlimit:2;">
    <g transform="matrix(0.025,0,0,0.025,0,24)">
        <path d="M840,-120L840,-760L120,-760L120,-440L40,-440L40,-760C40,-782 47.833,-800.833 63.5,-816.5C79.167,-832.167 98,-840 120,-840L840,-840C862,-840 880.833,-832.167 896.5,-816.5C912.167,-800.833 920,-782 920,-760L920,-200C920,-178 912.167,-159.167 896.5,-143.5C880.833,-127.833 862,-120 840,-120ZM247,-447C215.667,-478.333 200,-516 200,-560C200,-604 215.667,-641.667 247,-673C278.333,-704.333 316,-720 360,-720C404,-720 441.667,-704.333 473,-673C504.333,-641.667 520,-604 520,-560C520,-516 504.333,-478.333 473,-447C441.667,-415.667 404,-400 360,-400C316,-400 278.333,-415.667 247,-447ZM416.5,-503.5C432.167,-519.167 440,-538 440,-560C440,-582 432.167,-600.833 416.5,-616.5C400.833,-632.167 382,-640 360,-640C338,-640 319.167,-632.167 303.5,-616.5C287.833,-600.833 280,-582 280,-560C280,-538 287.833,-519.167 303.5,-503.5C319.167,-487.833 338,-480 360,-480C382,-480 400.833,-487.833 416.5,-503.5ZM40,-80L40,-192C40,-214.667 45.833,-235.5 57.5,-254.5C69.167,-273.5 84.667,-288 104,-298C145.333,-318.667 187.333,-334.167 230,-344.5C272.667,-354.833 316,-360 360,-360C404,-360 447.333,-354.833 490,-344.5C532.667,-334.167 574.667,-318.667 616,-298C635.333,-288 650.833,-273.5 662.5,-254.5C674.167,-235.5 680,-214.667 680,-192L680,-80L40,-80ZM120,-160L600,-160L600,-192C600,-199.333 598.167,-206 594.5,-212C590.833,-218 586,-222.667 580,-226C544,-244 507.667,-257.5 471,-266.5C434.333,-275.5 397.333,-280 360,-280C322.667,-280 285.667,-275.5 249,-266.5C212.333,-257.5 176,-244 140,-226C134,-222.667 129.167,-218 125.5,-212C121.833,-206 120,-199.333 120,-192L120,-160Z" style="fill:rgb(0,112,255);fill-rule:nonzero;"/>
    </g>
</svg>
