<svg width="88" height="68" viewBox="0 0 88 68" fill="none" xmlns="http://www.w3.org/2000/svg">
<path d="M29.856 -1.52588e-05V64.32H19.2V11.04L4.608 20.016L-9.53674e-07 12.48L20.352 -1.52588e-05H29.856ZM43.104 57.792V66.24H3.024V57.792H43.104ZM69.2745 58.224C69.2745 56.496 69.6745 54.944 70.4745 53.568C71.3065 52.16 72.4265 51.04 73.8345 50.208C75.2425 49.376 76.8105 48.96 78.5385 48.96C80.2985 48.96 81.8825 49.376 83.2905 50.208C84.6985 51.04 85.8025 52.16 86.6025 53.568C87.4345 54.944 87.8505 56.496 87.8505 58.224C87.8505 59.92 87.4345 61.488 86.6025 62.928C85.8025 64.336 84.6985 65.456 83.2905 66.288C81.8825 67.12 80.2985 67.536 78.5385 67.536C76.8105 67.536 75.2425 67.12 73.8345 66.288C72.4265 65.456 71.3065 64.336 70.4745 62.928C69.6745 61.488 69.2745 59.92 69.2745 58.224Z" fill="#6528E0" fill-opacity="0.8"/>
</svg>
