<svg width="91" height="69" viewBox="0 0 91 69" fill="none" xmlns="http://www.w3.org/2000/svg">
<path d="M21.168 9.53674e-06C25.68 9.53674e-06 29.488 0.848011 32.592 2.54401C35.728 4.20801 38.112 6.44801 39.744 9.26401C41.408 12.08 42.24 15.232 42.24 18.72C42.24 21.6 41.728 24.432 40.704 27.216C39.712 30 38.096 32.928 35.856 36C33.648 39.04 30.72 42.432 27.072 46.176C23.424 49.888 18.96 54.144 13.68 58.944H43.776L42.528 67.584H1.344V59.424C6.112 54.88 10.192 50.88 13.584 47.424C16.976 43.936 19.808 40.88 22.08 38.256C24.352 35.6 26.144 33.216 27.456 31.104C28.768 28.96 29.696 26.96 30.24 25.104C30.816 23.216 31.104 21.312 31.104 19.392C31.104 16.064 30.16 13.44 28.272 11.52C26.384 9.60001 23.76 8.64001 20.4 8.64001C17.392 8.64001 14.896 9.18401 12.912 10.272C10.928 11.36 8.96 13.12 7.008 15.552L1.19209e-07 10.224C2.592 6.92801 5.568 4.40001 8.928 2.64001C12.288 0.880011 16.368 9.53674e-06 21.168 9.53674e-06ZM72.1065 59.568C72.1065 57.84 72.5065 56.288 73.3065 54.912C74.1385 53.504 75.2585 52.384 76.6665 51.552C78.0745 50.72 79.6425 50.304 81.3705 50.304C83.1305 50.304 84.7145 50.72 86.1225 51.552C87.5305 52.384 88.6345 53.504 89.4345 54.912C90.2665 56.288 90.6825 57.84 90.6825 59.568C90.6825 61.264 90.2665 62.832 89.4345 64.272C88.6345 65.68 87.5305 66.8 86.1225 67.632C84.7145 68.464 83.1305 68.88 81.3705 68.88C79.6425 68.88 78.0745 68.464 76.6665 67.632C75.2585 66.8 74.1385 65.68 73.3065 64.272C72.5065 62.832 72.1065 61.264 72.1065 59.568Z" fill="#6528E0" fill-opacity="0.9"/>
</svg>
