<svg width="92" height="69" viewBox="0 0 92 69" fill="none" xmlns="http://www.w3.org/2000/svg">
<path d="M22.176 9.53674e-06C26.56 9.53674e-06 30.336 0.768011 33.504 2.30401C36.672 3.84001 39.104 5.87201 40.8 8.40001C42.496 10.928 43.344 13.712 43.344 16.752C43.344 19.472 42.768 21.904 41.616 24.048C40.464 26.192 38.896 27.968 36.912 29.376C34.928 30.784 32.688 31.776 30.192 32.352C32.976 32.64 35.52 33.408 37.824 34.656C40.128 35.904 41.968 37.68 43.344 39.984C44.752 42.288 45.456 45.184 45.456 48.672C45.456 52.448 44.464 55.872 42.48 58.944C40.528 61.984 37.744 64.4 34.128 66.192C30.544 67.984 26.32 68.88 21.456 68.88C17.296 68.88 13.328 68.112 9.55201 66.576C5.80801 65.04 2.62401 62.72 1.20401e-05 59.616L6.57601 53.856C8.46401 56.064 10.672 57.696 13.2 58.752C15.728 59.808 18.32 60.336 20.976 60.336C25.072 60.336 28.32 59.28 30.72 57.168C33.12 55.024 34.32 52.064 34.32 48.288C34.32 45.408 33.776 43.136 32.688 41.472C31.632 39.776 30.144 38.56 28.224 37.824C26.304 37.088 24.08 36.72 21.552 36.72H15.84L17.088 28.8H21.12C23.2 28.8 25.12 28.432 26.88 27.696C28.64 26.928 30.048 25.76 31.104 24.192C32.192 22.624 32.736 20.672 32.736 18.336C32.736 15.104 31.632 12.624 29.424 10.896C27.248 9.16801 24.544 8.30401 21.312 8.30401C18.56 8.30401 16.096 8.81601 13.92 9.84001C11.776 10.832 9.66401 12.304 7.58401 14.256L1.87201 8.16001C4.78401 5.37601 7.93601 3.32801 11.328 2.01601C14.72 0.67201 18.336 9.53674e-06 22.176 9.53674e-06ZM73.3065 59.568C73.3065 57.84 73.7065 56.288 74.5065 54.912C75.3385 53.504 76.4585 52.384 77.8665 51.552C79.2745 50.72 80.8425 50.304 82.5705 50.304C84.3305 50.304 85.9145 50.72 87.3225 51.552C88.7305 52.384 89.8345 53.504 90.6345 54.912C91.4665 56.288 91.8825 57.84 91.8825 59.568C91.8825 61.264 91.4665 62.832 90.6345 64.272C89.8345 65.68 88.7305 66.8 87.3225 67.632C85.9145 68.464 84.3305 68.88 82.5705 68.88C80.8425 68.88 79.2745 68.464 77.8665 67.632C76.4585 66.8 75.3385 65.68 74.5065 64.272C73.7065 62.832 73.3065 61.264 73.3065 59.568Z" fill="#6528E0"/>
</svg>
