<?xml version="1.0" encoding="UTF-8" standalone="no"?>
<!DOCTYPE svg PUBLIC "-//W3C//DTD SVG 1.1//EN" "http://www.w3.org/Graphics/SVG/1.1/DTD/svg11.dtd">
<svg width="100%" height="100%" viewBox="0 0 40 40" version="1.1" xmlns="http://www.w3.org/2000/svg" xmlns:xlink="http://www.w3.org/1999/xlink" xml:space="preserve" xmlns:serif="http://www.serif.com/" style="fill-rule:evenodd;clip-rule:evenodd;stroke-linejoin:round;stroke-miterlimit:2;">
    <g transform="matrix(1,0,0,1,-5,-5)">
        <path d="M7.177,39.6C6.314,39.6 6,39.169 6,38.698C6,38.188 6.196,37.992 6.98,37.482L7.726,37.208C8.392,36.855 8.706,36.541 8.706,35.404L8.706,14.775C8.706,13.363 8.353,13.01 7.451,12.657L6.745,12.422C6.275,12.108 6,11.873 6,11.402C6,10.932 6.235,10.618 6.902,10.383L12.157,8.539C13.098,8.186 13.608,8.5 13.608,9.52L13.608,29.756L20.158,23.952C21.02,23.207 21.06,22.501 20.001,21.991L19.765,21.913C19.138,21.599 18.903,21.364 18.903,20.815C18.903,20.305 19.177,19.834 19.962,19.834L26.55,19.834C27.452,19.834 27.766,20.226 27.766,20.736C27.766,21.285 27.648,21.521 26.903,21.913L26.433,22.148C25.06,22.893 24.472,23.56 23.609,24.266L20.001,27.442L24.628,35.168C25.295,36.306 25.727,36.698 26.589,37.09L27.138,37.286C27.923,37.718 28.158,38.031 28.158,38.502C28.158,39.129 27.805,39.6 26.785,39.6L23.256,39.6C21.805,39.6 21.413,39.247 20.824,38.188L16.393,30.658L13.608,33.129L13.608,35.404C13.608,36.541 13.922,36.776 14.589,37.208L15.334,37.482C15.961,37.992 16.275,38.149 16.275,38.698C16.275,39.169 16.001,39.6 15.138,39.6L7.177,39.6Z" style="fill:white;fill-rule:nonzero;"/>
    </g>
    <g transform="matrix(1,0,0,1,-5,-5)">
        <path d="M44.493,38.831L44.493,38.062C44.493,37.7 44.493,37.518 44.38,37.406C44.267,37.293 44.086,37.293 43.724,37.293L33.727,37.293C33.364,37.293 33.183,37.293 33.071,37.406C32.958,37.518 32.958,37.7 32.958,38.062L32.958,38.831C32.958,39.194 32.958,39.375 33.071,39.487C33.183,39.6 33.364,39.6 33.727,39.6L43.724,39.6C44.086,39.6 44.267,39.6 44.38,39.487C44.493,39.375 44.493,39.194 44.493,38.831Z" style="fill:rgb(255,198,42);fill-rule:nonzero;"/>
    </g>
</svg>
